TITLE ""
FILE "Step3_Track49.mp3" MP3
  TRACK 01 AUDIO
    TITLE "Step3_Track49_01"
    INDEX 01 00:00:00
  TRACK 02 AUDIO
    TITLE "Step3_Track49_02"
    INDEX 01 00:00:22
  TRACK 03 AUDIO
    TITLE "Step3_Track49_03"
    INDEX 01 00:01:70
  TRACK 04 AUDIO
    TITLE "Step3_Track49_04"
    INDEX 01 00:02:54
  TRACK 05 AUDIO
    TITLE "Step3_Track49_05"
    INDEX 01 00:03:50
  TRACK 06 AUDIO
    TITLE "Step3_Track49_06"
    INDEX 01 00:03:69
  TRACK 07 AUDIO
    TITLE "Step3_Track49_07"
    INDEX 01 00:07:65
  TRACK 08 AUDIO
    TITLE "Step3_Track49_08"
    INDEX 01 00:08:20
  TRACK 09 AUDIO
    TITLE "Step3_Track49_09"
    INDEX 01 00:09:17
  TRACK 10 AUDIO
    TITLE "Step3_Track49_10"
    INDEX 01 00:09:19
  TRACK 11 AUDIO
    TITLE "Step3_Track49_11"
    INDEX 01 00:13:09
  TRACK 12 AUDIO
    TITLE "Step3_Track49_12"
    INDEX 01 00:13:34
  TRACK 13 AUDIO
    TITLE "Step3_Track49_13"
    INDEX 01 00:14:36
  TRACK 14 AUDIO
    TITLE "Step3_Track49_14"
    INDEX 01 00:14:40
  TRACK 15 AUDIO
    TITLE "Step3_Track49_15"
    INDEX 01 00:18:38
  TRACK 16 AUDIO
    TITLE "Step3_Track49_16"
    INDEX 01 00:18:53
  TRACK 17 AUDIO
    TITLE "Step3_Track49_17"
    INDEX 01 00:19:55
  TRACK 18 AUDIO
    TITLE "Step3_Track49_18"
    INDEX 01 00:19:61
  TRACK 19 AUDIO
    TITLE "Step3_Track49_19"
    INDEX 01 00:23:70
  TRACK 20 AUDIO
    TITLE "Step3_Track49_20"
    INDEX 01 00:24:25
  TRACK 21 AUDIO
    TITLE "Step3_Track49_21"
    INDEX 01 00:25:18
  TRACK 22 AUDIO
    TITLE "Step3_Track49_22"
    INDEX 01 00:25:38
  TRACK 23 AUDIO
    TITLE "Step3_Track49_23"
    INDEX 01 00:29:10
  TRACK 24 AUDIO
    TITLE "Step3_Track49_24"
    INDEX 01 00:29:28
  TRACK 25 AUDIO
    TITLE "Step3_Track49_25"
    INDEX 01 00:30:31
  TRACK 26 AUDIO
    TITLE "Step3_Track49_26"
    INDEX 01 00:30:33
  TRACK 27 AUDIO
    TITLE "Step3_Track49_27"
    INDEX 01 00:33:22
  TRACK 28 AUDIO
    TITLE "Step3_Track49_28"
    INDEX 01 00:33:37
  TRACK 29 AUDIO
    TITLE "Step3_Track49_29"
    INDEX 01 00:34:39
  TRACK 30 AUDIO
    TITLE "Step3_Track49_30"
    INDEX 01 00:34:43
  TRACK 31 AUDIO
    TITLE "Step3_Track49_31"
    INDEX 01 00:38:30
  TRACK 32 AUDIO
    TITLE "Step3_Track49_32"
    INDEX 01 00:38:48
  TRACK 33 AUDIO
    TITLE "Step3_Track49_33"
    INDEX 01 00:39:42
  TRACK 34 AUDIO
    TITLE "Step3_Track49_34"
    INDEX 01 00:39:51
  TRACK 35 AUDIO
    TITLE "Step3_Track49_35"
    INDEX 01 00:43:12
  TRACK 36 AUDIO
    TITLE "Step3_Track49_36"
    INDEX 01 00:43:36
  TRACK 37 AUDIO
    TITLE "Step3_Track49_37"
    INDEX 01 00:44:37
  TRACK 38 AUDIO
    TITLE "Step3_Track49_38"
    INDEX 01 00:44:49
  TRACK 39 AUDIO
    TITLE "Step3_Track49_39"
    INDEX 01 00:48:54
  TRACK 40 AUDIO
    TITLE "Step3_Track49_40"
    INDEX 01 00:49:09
  TRACK 41 AUDIO
    TITLE "Step3_Track49_41"
    INDEX 01 00:50:02
  TRACK 42 AUDIO
    TITLE "Step3_Track49_42"
    INDEX 01 00:50:06
  TRACK 43 AUDIO
    TITLE "Step3_Track49_43"
    INDEX 01 00:53:16
